<?xml version="1.0" encoding="utf-8"?>
<!-- Generator: Adobe Illustrator 15.1.0, SVG Export Plug-In . SVG Version: 6.00 Build 0)  -->
<!DOCTYPE svg PUBLIC "-//W3C//DTD SVG 1.1//EN" "http://www.w3.org/Graphics/SVG/1.1/DTD/svg11.dtd">
<svg version="1.1" id="Ebene_1" xmlns="http://www.w3.org/2000/svg" xmlns:xlink="http://www.w3.org/1999/xlink" x="0px" y="0px"
	 width="400px" height="209px" viewBox="0 0 400 209" enable-background="new 0 0 400 209" xml:space="preserve">
<g>
	<g opacity="0.3">
		<path d="M225.651,49.433c-7.837-4.651-16.785-7.104-25.949-7.104c-9.071,0-17.942,2.407-25.724,6.971l-4.834-7.767
			c9.227-5.464,19.768-8.347,30.558-8.347c10.856,0,21.455,2.917,30.721,8.444L225.651,49.433z"/>
		<path d="M214.855,67.089c-4.594-2.667-9.808-4.071-15.153-4.071c-5.196,0-10.284,1.331-14.78,3.856l-4.558-7.319
			c5.866-3.374,12.528-5.151,19.337-5.151c6.937,0,13.706,1.841,19.647,5.334L214.855,67.089z"/>
		<path d="M236.478,31.566c-11.134-6.67-23.88-10.191-36.935-10.191c-13.022,0-25.739,3.504-36.854,10.143l-5.007-8.047
			c12.612-7.573,27.062-11.571,41.862-11.571c14.804,0,29.261,4.001,41.879,11.581L236.478,31.566z"/>
		<path d="M199.548,106.392c-8.42,0-15.271-6.851-15.271-15.27c0-8.421,6.851-15.272,15.271-15.272
			c8.418,0,15.271,6.852,15.271,15.272C214.818,99.541,207.966,106.392,199.548,106.392z M191.506,98.025h16.252V93.05h-16.252
			V98.025z M191.506,90.188h16.252v-4.976h-16.252V90.188z"/>
		<text transform="matrix(1 0 0 1 27.2817 106.5195)"><tspan x="0" y="0" font-family="'FolioStd-BoldCondensed'" font-size="43.6393" letter-spacing="1">SAVE THE</tspan><tspan x="148.415" y="0" font-family="'FolioStd-BoldCondensed'" font-size="24.9368">        </tspan><tspan x="198.886" y="0" font-family="'FolioStd-BoldCondensed'" font-size="43.6393" letter-spacing="1">INTERNET</tspan></text>
	</g>
	<g>
		<g>
			<g>
				<g>
					<g>
						<g>
							<path fill="#D1171F" d="M224.651,48.433c-7.837-4.651-16.785-7.104-25.949-7.104c-9.071,0-17.942,2.407-25.724,6.971
								l-4.834-7.767c9.227-5.464,19.768-8.347,30.558-8.347c10.856,0,21.455,2.917,30.721,8.444L224.651,48.433z"/>
						</g>
						<g>
							<path fill="#D1171F" d="M213.855,66.089c-4.594-2.667-9.808-4.071-15.153-4.071c-5.196,0-10.284,1.331-14.78,3.856
								l-4.558-7.319c5.866-3.374,12.528-5.151,19.337-5.151c6.937,0,13.706,1.841,19.647,5.334L213.855,66.089z"/>
						</g>
						<g>
							<path fill="#D1171F" d="M235.478,30.566c-11.134-6.67-23.88-10.191-36.935-10.191c-13.022,0-25.739,3.504-36.854,10.143
								l-5.007-8.047c12.612-7.573,27.062-11.571,41.862-11.571c14.804,0,29.261,4.001,41.879,11.581L235.478,30.566z"/>
						</g>
					</g>
					<g>
						<path fill="#D1171F" d="M198.548,105.392c-8.42,0-15.271-6.851-15.271-15.27c0-8.421,6.851-15.272,15.271-15.272
							c8.418,0,15.271,6.852,15.271,15.272C213.818,98.541,206.966,105.392,198.548,105.392z M190.506,97.025h16.252V92.05h-16.252
							V97.025z M190.506,89.188h16.252v-4.976h-16.252V89.188z"/>
					</g>
				</g>
			</g>
			<text transform="matrix(1 0 0 1 26.2817 105.5195)"><tspan x="0" y="0" fill="#D1171F" font-family="'FolioStd-BoldCondensed'" font-size="43.6393" letter-spacing="1">SAVE THE</tspan><tspan x="148.415" y="0" fill="#D1171F" font-family="'FolioStd-BoldCondensed'" font-size="24.9368">        </tspan><tspan x="198.886" y="0" fill="#D1171F" font-family="'FolioStd-BoldCondensed'" font-size="43.6393" letter-spacing="1">INTERNET</tspan></text>
		</g>
	</g>
</g>
<g>
	<g opacity="0.2">
		<rect x="56.173" y="28.215" transform="matrix(0.9943 -0.1066 0.1066 0.9943 -3.9909 10.8321)" width="86.276" height="29.052"/>
		
			<text transform="matrix(0.9943 -0.1066 0.1066 0.9943 66.6982 54.9175)" font-family="'FolioStd-BoldCondensed'" font-size="20.2485">act now:</text>
		
			<text transform="matrix(0.9943 -0.1066 0.1066 0.9943 65.6982 53.9175)" font-family="'FolioStd-BoldCondensed'" font-size="20.2485">act now:</text>
	</g>
	<g>
		<g>
			
				<rect x="54.173" y="26.215" transform="matrix(0.9943 -0.1066 0.1066 0.9943 -3.7891 10.6074)" fill="#3A4F5C" width="86.276" height="29.052"/>
			<g>
				<g opacity="0.4">
					
						<text transform="matrix(0.9943 -0.1066 0.1066 0.9943 64.6982 52.9175)" font-family="'FolioStd-BoldCondensed'" font-size="20.2485">act now:</text>
				</g>
				<g>
					
						<text transform="matrix(0.9943 -0.1066 0.1066 0.9943 63.6982 51.9175)" fill="#E6E6E6" font-family="'FolioStd-BoldCondensed'" font-size="20.2485">act now:</text>
				</g>
			</g>
		</g>
	</g>
</g>
<g>
	<g>
		<g>
			<g opacity="0.1">
				<path d="M303,188c0,2.762-2.238,5-5,5H99c-2.761,0-5-2.238-5-5v-18c0-2.762,2.239-5,5-5h199c2.762,0,5,2.238,5,5V188z"/>
				<path fill="none" stroke="#000000" stroke-miterlimit="10" d="M302.5,188.5c0,2.762-2.238,5-5,5h-199c-2.761,0-5-2.238-5-5v-18
					c0-2.762,2.239-5,5-5h199c2.762,0,5,2.238,5,5V188.5z"/>
			</g>
			<g>
				<linearGradient id="SVGID_1_" gradientUnits="userSpaceOnUse" x1="198.4995" y1="160.958" x2="198.4995" y2="192.7618">
					<stop  offset="0" style="stop-color:#47A8ED"/>
					<stop  offset="0.048" style="stop-color:#42A1E5"/>
					<stop  offset="0.1897" style="stop-color:#3793D4"/>
					<stop  offset="0.344" style="stop-color:#308ACA"/>
					<stop  offset="0.5333" style="stop-color:#2E87C7"/>
					<stop  offset="0.6465" style="stop-color:#2D85C3"/>
					<stop  offset="0.75" style="stop-color:#2A7DB8"/>
					<stop  offset="0.8497" style="stop-color:#2570A6"/>
					<stop  offset="0.9464" style="stop-color:#1F5E8C"/>
					<stop  offset="1" style="stop-color:#1A527A"/>
				</linearGradient>
				<path fill="url(#SVGID_1_)" d="M303,186c0,2.762-2.238,5-5,5H99c-2.761,0-5-2.238-5-5v-18c0-2.762,2.239-5,5-5h199
					c2.762,0,5,2.238,5,5V186z"/>
				<path fill="none" stroke="#D0E8DF" stroke-miterlimit="10" d="M302.5,186.5c0,2.762-2.238,5-5,5h-199c-2.761,0-5-2.238-5-5v-18
					c0-2.762,2.239-5,5-5h199c2.762,0,5,2.238,5,5V186.5z"/>
			</g>
		</g>
		<g>
			<g opacity="0.3">
				<text transform="matrix(1 0 0 1 129.0015 181.793)" font-family="'Arial-BoldMT'" font-size="10.535">Call your parliamentarian today!</text>
				<path d="M115.708,170.745c-4.147,0.362-7.214,4.019-6.852,8.166c0.363,4.146,4.019,7.214,8.166,6.852
					c4.147-0.363,7.214-4.019,6.852-8.165C123.511,173.449,119.855,170.382,115.708,170.745z M119.247,183.003l-0.698,0.489
					c0,0-2.485-1.148-4.427-3.921c-1.94-2.772-1.929-5.157-1.929-5.157l0.699-0.488l1.299-0.911l2.052,2.727l-1.397,0.978
					l2.323,3.301l1.396-0.979l1.982,3.052L119.247,183.003z"/>
			</g>
			<g>
				<g>
					<text transform="matrix(1 0 0 1 128.0015 180.793)" fill="#FFFFFF" font-family="'Arial-BoldMT'" font-size="10.535">Call your parliamentarian today!</text>
					<path fill="#FFFFFF" d="M114.708,169.745c-4.147,0.362-7.214,4.019-6.852,8.166c0.363,4.146,4.019,7.214,8.166,6.852
						c4.147-0.363,7.214-4.019,6.852-8.165C122.511,172.449,118.855,169.382,114.708,169.745z M118.247,182.003l-0.698,0.489
						c0,0-2.485-1.148-4.427-3.921c-1.94-2.772-1.929-5.157-1.929-5.157l0.699-0.488l1.299-0.911l2.052,2.727l-1.397,0.978
						l2.323,3.301l1.396-0.979l1.982,3.052L118.247,182.003z"/>
				</g>
			</g>
		</g>
	</g>
</g>
<rect x="37.667" y="121.667" fill="none" width="355.333" height="42"/>
<text transform="matrix(1 0 0 1 47.0801 130.1924)"><tspan x="0" y="0" font-family="'Bitter-Bold'" font-size="11">Your freedom online is threatened by EU proposals. The fight </tspan><tspan x="13.876" y="13.199" font-family="'Bitter-Bold'" font-size="11">for an open Internet is happening right now in Brussels.</tspan></text>
</svg>
