<?xml version="1.0" standalone="no"?>
<!DOCTYPE svg PUBLIC "-//W3C//DTD SVG 20010904//EN"
 "http://www.w3.org/TR/2001/REC-SVG-20010904/DTD/svg10.dtd">
<svg version="1.0" xmlns="http://www.w3.org/2000/svg"
 width="133.000000pt" height="97.000000pt" viewBox="0 0 133.000000 97.000000"
 preserveAspectRatio="xMidYMid meet">
<metadata>
Created by potrace 1.13, written by Peter Selinger 2001-2015
</metadata>
<g transform="translate(0.000000,97.000000) scale(0.100000,-0.100000)"
fill="#000000" stroke="none">
<path d="M520 959 c-178 -30 -383 -131 -484 -237 l-29 -31 46 -47 46 -47 38
35 c188 169 444 236 706 183 114 -23 260 -100 366 -194 l25 -22 43 43 c24 23
43 46 43 50 0 23 -118 114 -220 170 -160 88 -399 128 -580 97z"/>
<path d="M524 685 c-33 -7 -85 -23 -115 -36 -81 -34 -209 -124 -209 -147 0 -4
20 -27 44 -51 l45 -44 43 37 c183 157 480 158 668 1 l43 -36 49 48 49 48 -33
29 c-83 71 -188 125 -295 151 -71 17 -214 17 -289 0z"/>
<path d="M660 433 c-65 -5 -141 -24 -178 -46 -50 -29 -92 -63 -92 -74 0 -5 19
-28 43 -51 l43 -43 27 21 c90 71 232 73 322 4 l31 -24 48 49 48 49 -43 32
c-75 55 -175 88 -249 83z"/>
<path d="M634 180 c-86 -34 -60 -170 32 -170 92 0 123 130 39 168 -30 14 -42
14 -71 2z"/>
</g>
</svg>
